<svg viewBox="0 0 500 200" fill="none" xmlns="http://www.w3.org/2000/svg">
  <path d="M150 100C150 70 180 50 210 50C240 50 260 70 260 100C260 130 230 150 200 150C170 150 150 130 150 100Z" stroke="#7aaa7a" stroke-width="3" stroke-dasharray="8 8"/>
  <path d="M260 100C260 130 290 150 320 150C350 150 370 130 370 100C370 70 340 50 310 50C280 50 260 70 260 100Z" stroke="#1a2e44" stroke-width="2" opacity="0.3"/>
  <circle cx="260" cy="100" r="40" fill="#e8f4e8" stroke="#7aaa7a" stroke-width="2"/>
  <path d="M250 100H270M260 90V110" stroke="#7aaa7a" stroke-width="3" stroke-linecap="round"/>
  <text x="260" y="170" font-family="Outfit, sans-serif" font-size="12" fill="#6b7c8d" text-anchor="middle" letter-spacing="0.2em">DIAGNÓSTICO PRECOZ · BIENESTAR REAL</text>
</svg>
